<?xml version="1.0" standalone="no"?><!DOCTYPE svg PUBLIC "-//W3C//DTD SVG 1.1//EN" "http://www.w3.org/Graphics/SVG/1.1/DTD/svg11.dtd"><svg t="1501488993654" class="icon" style="" viewBox="0 0 1024 1024" version="1.1" xmlns="http://www.w3.org/2000/svg" p-id="9110" xmlns:xlink="http://www.w3.org/1999/xlink" width="32" height="32"><defs><style type="text/css"></style></defs><path d="M918.099065 511.831154c0 22.335704-18.274202 40.609906-40.609906 40.609906L146.509818 552.441061c-22.335704 0-40.609906-18.274202-40.609906-40.609906l0-5.801123c0-22.335704 18.274202-40.609906 40.609906-40.609906L877.489158 465.420125c22.335704 0 40.609906 18.274202 40.609906 40.609906L918.099065 511.831154z" p-id="9111" fill="#8a8a8a"></path><path d="M509.098927 915.03017c-22.335704 0-40.609906-18.274202-40.609906-40.609906L468.48902 143.440923c0-22.335704 18.274202-40.609906 40.609906-40.609906l5.801123 0c22.335704 0 40.609906 18.274202 40.609906 40.609906l0 730.97934c0 22.335704-18.274202 40.609906-40.609906 40.609906L509.098927 915.03017z" p-id="9112" fill="#8a8a8a"></path></svg>