<?xml version="1.0" standalone="no"?><!DOCTYPE svg PUBLIC "-//W3C//DTD SVG 1.1//EN" "http://www.w3.org/Graphics/SVG/1.1/DTD/svg11.dtd"><svg t="1501230808859" class="icon" style="" viewBox="0 0 1024 1024" version="1.1" xmlns="http://www.w3.org/2000/svg" p-id="6288" xmlns:xlink="http://www.w3.org/1999/xlink" width="32" height="32"><defs><style type="text/css"></style></defs><path d="M494.650069 413.565698c-97.017981 0-176.33195 78.605809-176.33195 176.331951s78.605809 176.33195 176.33195 176.33195c97.017981 0 176.33195-78.605809 176.33195-176.33195S591.66805 413.565698 494.650069 413.565698m0 0z" fill="#8a8a8a" p-id="6289"></path><path d="M916.713693 281.139696h-184.121715c-9.914246-29.742739-43.197787-119.679115-92.060858-119.679115H348.769018c-45.322268 0-82.146611 89.936376-92.769018 119.679115H72.586445C37.886584 281.139696 10.268326 310.882434 10.268326 346.998617v512.70816c0 36.824343 27.618257 65.858921 62.318119 65.858921H916.713693c34.699862 0 62.318119-29.742739 62.318119-65.858921V347.706777c0-36.824343-28.326418-66.567082-62.318119-66.567081m-422.063624 528.28769c-121.803596 0-220.237898-98.434302-220.237897-220.237898s98.434302-220.237898 220.237897-220.237897c121.803596 0 220.237898 98.434302 220.237898 220.237897s-99.142462 220.237898-220.237898 220.237898m315.131397-395.861688c-20.536653 0-36.824343-16.28769-36.824343-36.824343 0-20.536653 16.28769-36.824343 36.824343-36.824343 20.536653 0 36.824343 16.28769 36.824343 36.824343 0 20.536653-16.28769 36.824343-36.824343 36.824343m0 0z" fill="#8a8a8a" p-id="6290"></path><path d="M224.840941 224.48686c0 13.455048-10.622407 24.077455-24.077456 24.077455H90.998617C77.543568 247.856155 66.921162 237.233748 66.921162 224.48686c0-13.455048 10.622407-24.077455 24.077455-24.077455H201.471646c12.746888 0 23.369295 10.622407 23.369295 24.077455m0 0z" fill="#8a8a8a" p-id="6291"></path></svg>