<?xml version="1.0" standalone="no"?><!DOCTYPE svg PUBLIC "-//W3C//DTD SVG 1.1//EN" "http://www.w3.org/Graphics/SVG/1.1/DTD/svg11.dtd"><svg t="1513924588738" class="icon" style="" viewBox="0 0 1024 1024" version="1.1" xmlns="http://www.w3.org/2000/svg" p-id="7991" xmlns:xlink="http://www.w3.org/1999/xlink" width="32" height="32"><defs><style type="text/css"></style></defs><path d="M620.6 850.9c-13 0-25.7-5.4-33.9-14.4-11.1-12.2-46.4-44-75.3-44-28.7 0-64.5 31.9-74.8 43.1-8.2 8.9-20.7 14.2-33.6 14.2-6.1 0-11.9-1.2-17.2-3.5l-0.9-0.4-87.9-49.1-0.9-0.6c-16-11.2-22.1-33.1-14.2-50.9 0.1-0.1 8.1-18.7 8.1-35.6 0-51.3-41.8-93.1-93.1-93.1h-3.7c-14.7 0-26.7-13.1-30.5-33.3-0.3-1.6-7.5-40-7.5-70.2 0-30.2 7.2-68.6 7.5-70.2 3.9-20.5 16.1-33.6 31.1-33.3h3.1c51.3 0 93.1-41.8 93.1-93.1 0-16.9-8-35.5-8.1-35.6-7.9-17.8-1.8-39.7 14.3-50.9l0.9-0.6 92.7-50.9 1-0.4c5.2-2.2 10.9-3.4 17-3.4 12.9 0 25.5 5.2 33.7 13.9 11 11.5 45.6 41.4 73.7 41.4 27.8 0 62.3-29.3 73.2-40.6 8.2-8.5 20.7-13.6 33.4-13.6 6.2 0 12 1.2 17.3 3.5l0.9 0.4 89.5 49.7 0.9 0.6c16 11.2 22.1 33.1 14.2 50.9-0.1 0.1-8.1 18.7-8.1 35.6 0 51.3 41.8 93.1 93.1 93.1h3.1c14.9-0.3 27.2 12.8 31.1 33.3 0.3 1.6 7.5 40 7.5 70.2 0 30.2-7.2 68.6-7.5 70.2-3.9 20.5-16.1 33.6-31.1 33.3h-3.1c-51.3 0-93.1 41.8-93.1 93.1 0 16.9 8 35.5 8.1 35.6 7.9 17.8 1.8 39.7-14.2 50.9l-0.9 0.6-91 50.3-1 0.4c-5.2 2.3-10.9 3.4-16.9 3.4z m-2.8-42.9c0.4 0.3 1.6 0.7 2.8 0.7h0.1l85-47c-2.1-4.8-11.4-27.9-11.4-52.1 0-72.2 56.9-131.4 128.2-135.1 1-5.7 6.6-37.5 6.6-61.5 0-23.9-5.6-55.8-6.6-61.5-71.3-3.7-128.2-62.9-128.2-135.1 0-24.2 9.4-47.4 11.5-52.1l-83.7-46.5h-0.3c-1.4 0-2.8 0.5-3.2 0.8-1.4 1.4-13.5 13.7-31 26-25.8 18.1-50.2 27.3-72.5 27.3-22.5 0-47.1-9.4-73.1-27.9-17.5-12.5-29.7-25-31.1-26.5-0.4-0.3-1.8-0.8-3.2-0.8h-0.3l-86.7 47.6c2.1 4.8 11.4 27.9 11.4 52 0 72.2-56.9 131.4-128.2 135.1-1 5.7-6.6 37.5-6.6 61.5 0 23.9 5.6 55.8 6.6 61.5 71.3 3.7 128.2 62.9 128.2 135.1 0 24.2-9.5 47.4-11.5 52.1l82 45.9h0.2c1.2 0 2.3-0.4 2.7-0.7 1.5-1.6 13.8-14.6 31.4-27.5 26.3-19.3 51.3-29 74.3-29 23.2 0 48.4 10 74.8 29.6 18 13.2 30.3 26.5 31.8 28.1z" p-id="7992" fill="#cdcdcd"></path><path d="M511.7 636.7c-68.4 0-124-55.6-124-124s55.6-124 124-124 124 55.6 124 124c0 68.3-55.6 124-124 124z m0-205.8c-45.1 0-81.8 36.7-81.8 81.8 0 45.1 36.7 81.8 81.8 81.8s81.8-36.7 81.8-81.8c0-45.1-36.7-81.8-81.8-81.8z" p-id="7993" fill="#cdcdcd"></path></svg>