<?xml version="1.0" standalone="no"?><!DOCTYPE svg PUBLIC "-//W3C//DTD SVG 1.1//EN" "http://www.w3.org/Graphics/SVG/1.1/DTD/svg11.dtd"><svg t="1513243388265" class="icon" style="" viewBox="0 0 1024 1024" version="1.1" xmlns="http://www.w3.org/2000/svg" p-id="3951" xmlns:xlink="http://www.w3.org/1999/xlink" width="48" height="48"><defs><style type="text/css"></style></defs><path d="M657.807 839.135c-3.722-13.36-15.823-22.606-29.652-22.606h-65.347v-111.568c-16.555 2.797-33.535 4.323-50.823 4.323-17.303 0-34.284-1.525-50.854-4.323v111.568h-65.286c-13.83 0-25.961 9.246-29.654 22.606l-23.193 83.673c-2.549 9.303-0.675 19.282 5.142 26.96 5.844 7.705 14.9 12.233 24.525 12.233h278.911c16.994 0 30.766-13.845 30.766-30.915 0-4.247-0.836-8.305-2.374-11.983l-22.164-79.967zM824.828 176.206c-7.729-2.13-16.605-3.355-25.766-3.355-0.002 0-0.005 0-0.007 0-3.969 0-7.926 0.263-11.883 0.703v-82.455c0-16.057-12.95-29.097-28.948-29.097h-492.436c-16.013 0-28.994 13.041-28.994 29.097v82.455c-3.956-0.441-7.911-0.703-11.868-0.703-0.002 0-0.004 0-0.006 0-9.161 0-18.036 1.225-26.471 3.519-66.865 17.93-102.863 103.405-79.715 190.782 20.277 76.375 79.026 128.945 138.613 128.945 3.018 0 6.037-0.307 9.069-0.601 14.655 31.31 33.617 58.073 56.509 80.898-49.051-65.924-48.596-65.060-48.143-64.254 18.308 33.584 41.913 61.917 70.028 84.95-58.073-64.789-57.619-64.073-57.135-63.367 4.25 6.447 8.673 12.761 13.347 18.857 0.132 0.161 0.263 0.322 0.411 0.468 9.817 12.732 20.658 24.511 32.291 35.294 0.234 0.19 0.411 0.425 0.601 0.583 5.758 5.303 11.735 10.315 17.83 15.090 0.307 0.236 0.585 0.427 0.865 0.645 25.302 19.515 53.783 34.516 84.404 43.895 0.103 0.042 0.19 0.059 0.292 0.102 7.692 2.315 15.458 4.323 23.369 5.949h0.044c14.074 3.020 30.327 4.861 46.972 5.085-21.875-1.232-21.669-1.232-21.494-1.217 8.365 0.849 16.849 1.318 25.375 1.318 8.541 0 16.964-0.471 25.302-1.318 0.203-0.016 0.41-0.016 0.645-0.059 8.379-0.836 16.642-2.14 24.803-3.81h0.146c24.167-5.078 45.552-12.692 65.49-22.756-41.955 16.735-41.693 16.681-41.421 16.665 30.214-9.34 58.663-24.325 83.981-43.841 0.279-0.206 0.556-0.439 0.836-0.645 6.167-4.763 12.117-9.817 17.858-15.090 0.19-0.175 0.396-0.366 0.586-0.571 11.677-10.768 22.505-22.606 32.364-35.335 0.147-0.147 0.249-0.279 0.351-0.439 4.689-6.095 9.143-12.41 13.39-18.87 0.455-0.688 0.924-1.393 1.379-2.097 20.578-31.562 35.778-68.639 43.265-108.438-31.298 88.133-30.859 87.312-30.419 86.463 15.116-27.843 26.019-60.284 30.828-94.679-20.777 80.82-17.729 81.111-14.741 81.111 59.601 0 118.367-52.555 138.614-128.931 23.182-87.376-12.846-172.851-80.416-190.944zM166.353 354.435c-15.868-59.894 4.981-119.596 45.492-130.425 3.901-1.079 8.377-1.699 12.999-1.699 0.041 0 0.080 0 0.121 0 3.92 0 7.877 0.527 11.846 1.347v137.28c0 8.366 0.396 16.657 1.040 24.863 0.073 1.115 0.132 2.213 0.219 3.326 0.66 7.78 1.657 15.472 2.873 23.104 0.219 1.363 0.454 2.681 0.658 4.029 1.334 7.574 2.873 15.017 4.718 22.343 0.249 1.142 0.571 2.271 0.864 3.412 0.336 1.287 0.658 2.521 0.996 3.779-34.885-5.714-69.007-43.029-81.827-91.363zM662.421 298.102l-81.754 61.607 29.727 97.458c0.258 0.814 0.406 1.75 0.406 2.721 0 3.070-1.486 5.793-3.778 7.489-1.652 1.19-3.57 1.806-5.461 1.806-1.833 0-3.692-0.542-5.23-1.641l-84.345-58.267-84.332 58.267c-3.209 2.257-7.545 2.169-10.724-0.147-2.291-1.714-3.758-4.42-3.758-7.469 0-0.983 0.153-1.933 0.436-2.823l29.65-97.406-81.739-61.593c-3.15-2.375-4.483-6.535-3.252-10.301 1.223-3.705 4.622-6.345 8.647-6.418l102.627-2.065 33.742-96.317c1.275-3.705 4.777-6.182 8.703-6.182s7.414 2.476 8.702 6.182l33.727 96.317 102.631 2.065c3.97 0.089 7.444 2.681 8.643 6.417 1.185 3.765-0.089 7.926-3.269 10.301zM857.662 354.435c-12.833 48.334-46.912 85.65-81.84 91.363 0.351-1.245 0.673-2.491 0.996-3.779 0.307-1.142 0.615-2.242 0.894-3.412 4.993-19.184 8.157-41.351 8.772-64.159-3.851 40.466-3.646 39.148-3.44 37.785 2.452-14.34 3.935-30.953 4.092-47.882-1.102 23.664-1.043 22.58-0.97 21.494 0.63-8.234 1.027-16.556 1.027-24.922v-137.266c3.954-0.821 7.939-1.347 11.881-1.347 4.423 0 8.834 0.556 13.068 1.699 40.553 10.828 61.388 70.531 45.52 130.425z" p-id="3952" fill="#c95f47"></path></svg>