<?xml version="1.0" standalone="no"?><!DOCTYPE svg PUBLIC "-//W3C//DTD SVG 1.1//EN" "http://www.w3.org/Graphics/SVG/1.1/DTD/svg11.dtd"><svg t="1513753067461" class="icon" style="" viewBox="0 0 1024 1024" version="1.1" xmlns="http://www.w3.org/2000/svg" p-id="8852" xmlns:xlink="http://www.w3.org/1999/xlink" width="48" height="48"><defs><style type="text/css"></style></defs><path d="M864 960l-704 0c-35.349333 0-64-28.650667-64-64L96 128c0-35.349333 28.650667-64 64-64l704 0c35.349333 0 64 28.650667 64 64l0 768C928 931.349333 899.349333 960 864 960zM864 128l-704 0 0 768 704 0L864 128zM288 277.333333l448 0c23.573333 0 42.666667 19.114667 42.666667 42.666667s-19.093333 42.666667-42.666667 42.666667l-448 0c-23.573333 0-42.666667-19.114667-42.666667-42.666667S264.426667 277.333333 288 277.333333zM288 469.333333l448 0c23.573333 0 42.666667 19.093333 42.666667 42.666667s-19.093333 42.666667-42.666667 42.666667l-448 0c-23.573333 0-42.666667-19.093333-42.666667-42.666667S264.426667 469.333333 288 469.333333zM288 661.333333l234.666667 0c23.552 0 42.666667 19.093333 42.666667 42.666667 0 23.573333-19.114667 42.666667-42.666667 42.666667l-234.666667 0c-23.573333 0-42.666667-19.093333-42.666667-42.666667C245.333333 680.426667 264.426667 661.333333 288 661.333333z" fill="#8a8a8a" p-id="8853"></path></svg>