<?xml version="1.0" standalone="no"?><!DOCTYPE svg PUBLIC "-//W3C//DTD SVG 1.1//EN" "http://www.w3.org/Graphics/SVG/1.1/DTD/svg11.dtd"><svg t="1500969216733" class="icon" style="" viewBox="0 0 1024 1024" version="1.1" xmlns="http://www.w3.org/2000/svg" p-id="29084" xmlns:xlink="http://www.w3.org/1999/xlink" width="32" height="32"><defs><style type="text/css"></style></defs><path d="M144.932856 514.174688c0-96.157706-0.012644-192.315411 0.01445-288.474923 0.005419-20.563809 0.366663-41.217928 7.306158-60.828053 11.53813-32.62213 30.591939-59.186199 63.329667-73.684723 13.983751-6.193527 28.796557-9.018454 44.068142-9.029291 82.340127-0.057799 164.683866-0.065024 247.023992-0.025287 16.653343 0.007225 25.803651 13.521359 18.950855 27.759787-2.617212 5.440333-6.890727 8.765583-12.995749 9.296612-3.713587 0.323313-7.456074 0.440718-11.184111 0.438911-79.914374-0.016256-159.828748-0.070443-239.741316-0.093923-13.349768-0.001806-26.518914 1.179461-38.486924 7.817318-24.62419 13.656825-38.409257 35.118325-44.156647 62.184524-1.943492 9.152114-2.339054 18.457757-2.337248 27.819392 0.057799 196.42456 0.045155 392.849121 0.077667 589.271875 0.001806 17.856286 1.587667 35.573492 10.037162 51.666908 14.71527 28.032526 36.610262 46.020666 69.745358 46.045953 169.911065 0.113792 339.82213-0.045155 509.729582 0.124629 40.069173 0.039737 67.621244-29.342035 76.874507-63.253806 3.171721-11.632053 3.845441-23.52059 3.843635-35.501244-0.023481-94.665768-0.023481-189.32973 0.018062-283.991886 0.001806-4.472199 0.220359-8.96788 0.736938-13.405761 0.885048-7.615021 7.24294-14.341383 13.761586-14.971753 6.78416-0.653851 14.104768 5.136888 16.216238 12.88557 1.137918 4.177786 1.316734 8.467557 1.316734 12.773584-0.005419 96.157706 0.043349 192.317217-0.034318 288.474923-0.025287 29.217406-5.39879 57.271607-21.553617 82.148667-21.808294 33.590263-52.364108 52.284635-93.20273 52.268379-168.415515-0.059605-336.832837-0.41543-505.250158-0.027093-53.863271 0.121017-91.353162-36.319461-106.870393-82.331096-5.727522-16.980269-7.268227-34.580072-7.259196-52.407458C144.961755 709.479393 144.932856 611.824331 144.932856 514.174688z" p-id="29085" fill="#8a8a8a"></path><path d="M494.367686 509.525479c-0.113792-4.33312 1.891112-9.00581 5.416852-13.13844 25.301522-29.672573 50.565114-59.377659 75.881086-89.039395 88.419861-103.608361 176.854172-207.204078 265.29029-310.799795 2.060896-2.411303 4.105537-4.842474 6.28745-7.141792 5.853957-6.171852 13.427435-8.232748 19.041166-5.283192 6.211589 3.265645 10.317126 12.741072 8.944399 20.249526-1.015095 5.557737-4.121793 9.883633-7.663789 14.028907-26.907251 31.493243-53.807278 62.99371-80.705498 94.49779-86.019396 100.750922-172.038791 201.503649-258.063606 302.252765-2.05909 2.409497-4.08025 4.862343-6.262163 7.16166-6.224232 6.56922-11.489362 8.164112-17.814743 5.537869C498.520184 525.273907 494.383942 518.413885 494.367686 509.525479z" p-id="29086" fill="#8a8a8a"></path></svg>