<?xml version="1.0" standalone="no"?><!DOCTYPE svg PUBLIC "-//W3C//DTD SVG 1.1//EN" "http://www.w3.org/Graphics/SVG/1.1/DTD/svg11.dtd"><svg t="1500705512027" class="icon" style="" viewBox="0 0 1024 1024" version="1.1" xmlns="http://www.w3.org/2000/svg" p-id="4305" xmlns:xlink="http://www.w3.org/1999/xlink" width="128" height="128"><defs><style type="text/css"></style></defs><path d="M950.355723 525.542434c-25.02393-47.568389-72.17174-79.842443-123.107829-84.192517-18.475793-1.590218-23.807219-4.957919-29.046546-27.409257-13.938454-59.589167-47.428196-100.422154-96.867188-118.009717-29.794583-10.663874-61.741179-10.523681-100.516298 0.280386-19.59836 5.565762-24.743544 3.648087-32.92897-6.548136-22.217001-27.596522-43.312458-46.820352-66.37164-60.431348-68.569702-40.552601-146.260132-34.284851-207.90819 16.604166-55.098899 45.463448-81.338516 104.117312-78.017888 174.324304 0.607844 13.704117 0.093121 18.3356 0.140193 18.8493-2.619664 2.432399-16.090467 7.15598-21.188578 8.933463-39.477107 13.798261-72.872704 36.670178-102.059444 69.926606-59.729359 68.054979-39.009456 159.497621 7.998161 219.928968 28.672016 36.950564 68.89716 55.613622 119.740128 55.613622 4.069689 0 8.185426-0.140193 12.348236-0.37453 13.190417-0.748037 23.293519-12.06785 22.544459-25.257244-0.701988-13.143345-10.477632-23.901363-25.257244-22.544459-41.628096 2.338255-70.254064-9.401114-91.581812-36.810371-32.367175-41.628096-54.30379-108.234073-9.775644-158.935826 23.573905-26.894534 50.375318-45.323255 81.806167-56.31561 42.517349-14.826684 55.379285-27.128871 53.088102-75.258031-2.572592-55.098899 17.306154-99.299587 60.711733-135.128607 46.071292-38.07313 101.919251-42.61047 153.089677-12.301164 17.913998 10.570753 34.892695 26.239618 53.368488 49.205679 26.66122 33.069163 57.063647 29.981848 83.210144 22.638603 28.672016-8.092305 51.40374-8.465812 71.469752-1.309832 34.284851 12.208043 55.94108 39.663348 66.324568 83.865059 9.728572 41.534975 31.151487 60.758806 71.609944 64.173578 34.284851 2.947122 67.541279 26.006304 84.753289 58.794058 18.521842 35.173081 16.463973 75.960019-5.705955 114.875331-28.39163 49.76645-65.62258 76.05314-117.307729 82.648348-13.096273 1.683339-22.404266 13.658068-20.720927 26.801413 1.683339 13.096273 13.845333 22.264073 26.801413 20.720927 65.950038-8.41874 117.40085-44.24776 152.85534-106.45659C973.929628 633.636315 976.314954 574.98245 950.355723 525.542434z" p-id="4306" fill="#4183c4"></path><path d="M623.129007 661.185764 542.632671 740.252541 542.632671 469.227848c0-13.236466-10.710946-23.948435-23.948435-23.948435-13.236466 0-23.948435 10.710946-23.948435 23.948435l0 275.05345-93.92109-82.95534c-9.962909-8.746198-25.071002-7.764847-33.8172 2.104941-8.746198 9.915837-7.810896 25.071002 2.104941 33.8172l133.724631 118.055766c1.157359 1.017166 2.549056 1.534959 3.835352 2.295276 1.087774 0.645706 2.029216 1.446955 3.215228 1.917676 2.829442 1.122567 5.8001 1.774413 8.80555 1.774413 3.104711 0 6.185886-0.63752 9.097192-1.832741 2.163269-0.8913 3.975545-2.330068 5.765307-3.783163 0.613984-0.491187 1.356904-0.698918 1.928932-1.25969l0.116657-0.113587c0.011256-0.017396 0.023536-0.029676 0.047072-0.047072l121.072473-118.924553c9.448186-9.260921 9.541307-24.416086 0.280386-33.864272C647.77943 652.065036 632.624265 651.92382 623.129007 661.185764z" p-id="4307" fill="#4183c4"></path></svg>