<?xml version="1.0" standalone="no"?><!DOCTYPE svg PUBLIC "-//W3C//DTD SVG 1.1//EN" "http://www.w3.org/Graphics/SVG/1.1/DTD/svg11.dtd"><svg t="1494379503984" class="icon" style="" viewBox="0 0 1024 1024" version="1.1" xmlns="http://www.w3.org/2000/svg" p-id="5965" xmlns:xlink="http://www.w3.org/1999/xlink" width="32" height="32"><defs><style type="text/css"></style></defs><path d="M489.536 815.405c-76.667 36.586-164.698 59.35-260.026 36.873-95.33-22.486-162.981-83.444-151.357-195.989C89.8 543.735 210.112 504.924 309.061 504.924c98.985 0 286.75 64.131 286.75 64.131s15.776-35.353 31.106-75.77c15.319-40.412 19.666-72.889 19.666-72.889H246.739v-40.071h194.256v-76.661l-242.17 1.744V254.88h242.17V139.889h127.189v114.99h259.605v50.528l-259.605 1.742v71.432l214.356 1.745s-3.875 40.072-31.048 112.96c-27.145 72.885-52.633 110.057-52.633 110.057l325.077 106.667V204.838C1023.936 91.744 932.253 0.062 819.16 0.062H204.837C91.743 0.062 0.063 91.744 0.063 204.838v614.325c0 113.092 91.681 204.772 204.774 204.772H819.16c94.26 0 173.433-63.771 197.261-150.458L641.366 695.685s-75.171 83.131-151.83 119.72z" fill="#108EE9" p-id="5966"></path><path d="M267.432 566.703c-119.362 7.598-148.523 60.112-148.523 108.434s29.474 115.497 169.75 115.497C428.9 790.634 547.95 649.2 547.95 649.2s-161.189-90.096-280.518-82.497z" fill="#108EE9" p-id="5967"></path></svg>