<?xml version="1.0" standalone="no"?><!DOCTYPE svg PUBLIC "-//W3C//DTD SVG 1.1//EN" "http://www.w3.org/Graphics/SVG/1.1/DTD/svg11.dtd"><svg t="1494908097912" class="icon" style="" viewBox="0 0 1024 1024" version="1.1" xmlns="http://www.w3.org/2000/svg" p-id="3182" xmlns:xlink="http://www.w3.org/1999/xlink" width="32" height="32"><defs><style type="text/css"></style></defs><path d="M512.573563 457.218326c-63.548338 0-115.235534-52.224432-115.235534-116.486014 0-64.22372 51.687196-116.448152 115.235534-116.448152 63.551408 0 115.236558 52.224432 115.236558 116.448152C627.811144 404.993894 576.125995 457.218326 512.573563 457.218326zM512.573563 256.280898c-46.089711 0-83.566254 37.878702-83.566254 84.451414 0 46.569642 37.476543 84.4903 83.566254 84.4903 46.111201 0 83.587744-37.920658 83.587744-84.4903C596.161307 294.1596 558.684764 256.280898 512.573563 256.280898z" p-id="3183" fill="#bfbfbf"></path><path d="M512.114099 864.745926 500.115833 850.40122c-10.462283-12.497639-256.374018-307.84939-256.374018-500.709863 0-154.788365 120.601752-280.69596 268.831748-280.69596 147.597593 0 268.199345 125.907595 268.87268 280.620235 0.807389 192.936197-246.720148 488.325811-257.258155 500.82345L512.114099 864.745926zM512.573563 100.992135c-130.791835 0-237.182934 111.562888-237.182934 248.700245 0 157.866471 187.035814 402.835741 236.799194 465.213417 50.033533-62.337767 238.298338-307.269175 237.604536-465.135646C749.218238 212.556047 642.827139 100.992135 512.573563 100.992135z" p-id="3184" fill="#bfbfbf"></path><path d="M704.840518 654.540414l0 31.648814 63.33856 0 63.377446 237.165538L198.035844 923.354765l63.377446-237.165538 47.493687 0L308.906977 654.540414 229.705124 654.540414l-79.162968 300.464189 728.527498 0L799.885198 654.540414 704.840518 654.540414z" p-id="3185" fill="#bfbfbf"></path></svg>