<?xml version="1.0" standalone="no"?><!DOCTYPE svg PUBLIC "-//W3C//DTD SVG 1.1//EN" "http://www.w3.org/Graphics/SVG/1.1/DTD/svg11.dtd"><svg t="1500874818575" class="icon" style="" viewBox="0 0 1024 1024" version="1.1" xmlns="http://www.w3.org/2000/svg" p-id="3750" xmlns:xlink="http://www.w3.org/1999/xlink" width="32" height="32"><defs><style type="text/css"></style></defs><path d="M840.889344 64.313344 183.76192 64.313344c-16.507904 0-119.476224 0-119.476224 119.476224L64.285696 840.881152c0 119.499776 119.476224 119.499776 119.476224 119.499776l657.128448 0c119.476224 0 119.476224-119.499776 119.476224-119.499776L960.366592 183.789568C960.365568 64.313344 857.409536 64.313344 840.889344 64.313344M900.627456 840.881152c0 0 0 59.737088-59.738112 59.737088L615.579648 665.94304 492.726272 772.639744l-184.35072-170.687488-184.34048 170.687488 0-588.8512c0-59.738112 43.21792-59.738112 59.725824-59.738112l657.128448 0c16.520192 0 59.738112 0 59.738112 59.738112L900.627456 840.881152zM661.675008 302.802944c-66.089984 0-119.658496 53.663744-119.658496 119.86432 0 66.151424 53.568512 119.839744 119.658496 119.839744 66.055168 0 119.658496-53.689344 119.658496-119.839744C781.333504 356.467712 727.730176 302.802944 661.675008 302.802944" p-id="3751" fill="#8a8a8a"></path></svg>