<?xml version="1.0" standalone="no"?><!DOCTYPE svg PUBLIC "-//W3C//DTD SVG 1.1//EN" "http://www.w3.org/Graphics/SVG/1.1/DTD/svg11.dtd"><svg t="1513047418441" class="icon" style="" viewBox="0 0 1024 1024" version="1.1" xmlns="http://www.w3.org/2000/svg" p-id="3019" xmlns:xlink="http://www.w3.org/1999/xlink" width="64" height="64"><defs><style type="text/css"></style></defs><path d="M512 750.933333c116.053333 0 204.8-88.746667 204.8-204.8V204.8c0-112.64-92.16-204.8-204.8-204.8S307.2 92.16 307.2 204.8v341.333333c0 112.64 92.16 204.8 204.8 204.8zM375.466667 204.8c0-75.093333 61.44-136.533333 136.533333-136.533333s136.533333 61.44 136.533333 136.533333v341.333333c0 75.093333-61.44 136.533333-136.533333 136.533334s-136.533333-61.44-136.533333-136.533334V204.8z" fill="#7a3530" p-id="3020"></path><path d="M853.333333 546.133333c0-20.48-13.653333-34.133333-34.133333-34.133333s-34.133333 13.653333-34.133333 34.133333c0 150.186667-122.88 273.066667-273.066667 273.066667s-273.066667-122.88-273.066667-273.066667c0-20.48-13.653333-34.133333-34.133333-34.133333s-34.133333 13.653333-34.133333 34.133333c0 177.493333 136.533333 320.853333 307.2 337.92V955.733333H307.2c-20.48 0-34.133333 13.653333-34.133333 34.133334s13.653333 34.133333 34.133333 34.133333h409.6c20.48 0 34.133333-13.653333 34.133333-34.133333s-13.653333-34.133333-34.133333-34.133334h-170.666667v-71.68c170.666667-17.066667 307.2-160.426667 307.2-337.92z" fill="#7a3530" p-id="3021"></path><path d="M512 238.933333m-34.133333 0a34.133333 34.133333 0 1 0 68.266666 0 34.133333 34.133333 0 1 0-68.266666 0Z" fill="#7a3530" p-id="3022"></path><path d="M512 375.466667m-34.133333 0a34.133333 34.133333 0 1 0 68.266666 0 34.133333 34.133333 0 1 0-68.266666 0Z" fill="#7a3530" p-id="3023"></path><path d="M512 512m-34.133333 0a34.133333 34.133333 0 1 0 68.266666 0 34.133333 34.133333 0 1 0-68.266666 0Z" fill="#7a3530" p-id="3024"></path></svg>