<?xml version="1.0" standalone="no"?><!DOCTYPE svg PUBLIC "-//W3C//DTD SVG 1.1//EN" "http://www.w3.org/Graphics/SVG/1.1/DTD/svg11.dtd"><svg t="1500968259068" class="icon" style="" viewBox="0 0 1026 1024" version="1.1" xmlns="http://www.w3.org/2000/svg" p-id="10071" xmlns:xlink="http://www.w3.org/1999/xlink" width="32.0625" height="32"><defs><style type="text/css"></style></defs><path d="M1015.683584 19.968a26.624 26.624 0 0 0-29.696-4.096L15.235584 494.592a26.624 26.624 0 0 0-3.584 46.08l204.8 143.36a26.624 26.624 0 0 0 30.72-44.032l-167.424-117.76L870.787584 132.096 302.467584 706.56a26.624 26.624 0 0 0-7.68 18.944v259.072a26.624 26.624 0 0 0 51.2 0v-248.32l583.68-587.264L651.139584 921.6l-133.632-93.696a26.624 26.624 0 0 0-30.72 44.032l162.304 113.664a26.624 26.624 0 0 0 15.36 4.608h8.192a26.624 26.624 0 0 0 16.896-16.384L1024.387584 51.2a26.624 26.624 0 0 0-8.704-31.232z" p-id="10072" fill="#8a8a8a"></path></svg>