<?xml version="1.0" standalone="no"?><!DOCTYPE svg PUBLIC "-//W3C//DTD SVG 1.1//EN" "http://www.w3.org/Graphics/SVG/1.1/DTD/svg11.dtd"><svg t="1513754941693" class="icon" style="" viewBox="0 0 1024 1024" version="1.1" xmlns="http://www.w3.org/2000/svg" p-id="15166" id="mx_n_1513754941694" xmlns:xlink="http://www.w3.org/1999/xlink" width="48" height="48"><defs><style type="text/css"></style></defs><path d="M699.733333 512c113.117867 0 204.8-91.682133 204.8-204.8s-91.682133-204.8-204.8-204.8-204.8 91.682133-204.8 204.8c0 37.6832 10.3424 72.840533 28.091733 103.185067l-152.541867 103.253333C343.927467 491.6224 310.272 477.866667 273.066667 477.866667c-84.821333 0-153.6 68.778667-153.6 153.6S188.245333 785.066667 273.066667 785.066667c58.743467 0 109.1584-33.348267 134.997333-81.8176l127.7952 60.689067C531.797333 775.9872 529.066667 788.6848 529.066667 802.133333c0 65.979733 53.486933 119.466667 119.466667 119.466667s119.466667-53.486933 119.466667-119.466667S714.513067 682.666667 648.533333 682.666667c-40.311467 0-75.810133 20.104533-97.450667 50.722133l-130.3552-61.883733c3.4816-12.834133 5.9392-26.077867 5.9392-40.004267 0-35.089067-12.253867-67.072-32.0512-92.945067l147.933867-100.1472C580.096 483.362133 636.552533 512 699.733333 512zM648.533333 716.8c47.138133 0 85.333333 38.1952 85.333333 85.333333S695.671467 887.466667 648.533333 887.466667s-85.333333-38.1952-85.333333-85.333333S601.3952 716.8 648.533333 716.8zM273.066667 750.933333c-65.979733 0-119.466667-53.486933-119.466667-119.466667S207.086933 512 273.066667 512s119.466667 53.486933 119.466667 119.466667S339.0464 750.933333 273.066667 750.933333zM699.733333 136.533333c94.242133 0 170.666667 76.424533 170.666667 170.666667s-76.424533 170.666667-170.666667 170.666667-170.666667-76.424533-170.666667-170.666667S605.4912 136.533333 699.733333 136.533333z" p-id="15167" fill="#1296db"></path></svg>