<?xml version="1.0" standalone="no"?><!DOCTYPE svg PUBLIC "-//W3C//DTD SVG 1.1//EN" "http://www.w3.org/Graphics/SVG/1.1/DTD/svg11.dtd"><svg t="1500720699907" class="icon" style="" viewBox="0 0 1024 1024" version="1.1" xmlns="http://www.w3.org/2000/svg" p-id="3512" xmlns:xlink="http://www.w3.org/1999/xlink" width="64" height="64"><defs><style type="text/css"></style></defs><path d="M512 1024C229.255529 1024 0 794.744471 0 512 0 229.255529 229.255529 0 512 0 794.744471 0 1024 229.255529 1024 512 1024 794.744471 794.744471 1024 512 1024ZM512 60.235294C262.505412 60.235294 60.235294 262.505412 60.235294 512 60.235294 761.494588 262.505412 963.764706 512 963.764706 761.494588 963.764706 963.764706 761.494588 963.764706 512 963.764706 262.505412 761.494588 60.235294 512 60.235294ZM512 783.058824C495.375059 783.058824 481.882353 769.566118 481.882353 752.941176 481.882353 736.316235 495.375059 722.823529 512 722.823529 528.624941 722.823529 542.117647 736.316235 542.117647 752.941176 542.117647 769.566118 528.624941 783.058824 512 783.058824ZM481.882353 240.941176 542.117647 240.941176 542.117647 662.588235 481.882353 662.588235 481.882353 240.941176Z" p-id="3513" fill="#8a8a8a"></path></svg>