<?xml version="1.0" standalone="no"?><!DOCTYPE svg PUBLIC "-//W3C//DTD SVG 1.1//EN" "http://www.w3.org/Graphics/SVG/1.1/DTD/svg11.dtd"><svg t="1500887108659" class="icon" style="" viewBox="0 0 1024 1024" version="1.1" xmlns="http://www.w3.org/2000/svg" p-id="7563" xmlns:xlink="http://www.w3.org/1999/xlink" width="32" height="32"><defs><style type="text/css"></style></defs><path d="M881.664 113.664h-284.16c-9.728 0-18.432 5.12-23.552 12.8L434.176 279.552c-10.24 11.264-9.728 28.672 1.024 39.424l109.568 109.568-111.616 136.704c-6.144 7.168-7.68 16.896-5.12 25.6l31.744 111.616-163.84-134.656 110.08-104.96c11.776-11.264 11.776-30.72-0.512-41.472L261.12 290.816 310.784 163.84c2.048-5.12 2.56-10.752 1.536-15.872 0.512-2.048 0.512-4.096 0.512-6.144 0-15.872-12.8-28.672-28.672-28.672H167.936c-47.104 0-84.992 38.4-84.992 85.504v596.992c0 47.104 37.888 85.504 85.504 85.504h713.728c47.104 0 85.504-38.4 85.504-85.504V199.168c-0.512-47.104-38.912-85.504-86.016-85.504z m28.672 682.496c0 15.872-12.8 28.672-28.672 28.672H167.936c-15.872 0-28.672-12.8-28.672-28.672V199.168c0-15.872 12.8-28.672 28.16-28.672h79.36l-46.08 117.76c-4.096 11.264-1.536 23.552 7.168 31.232l136.192 122.88-111.104 105.984c-12.288 11.776-11.776 31.744 1.536 42.496L493.568 803.84c21.504 17.92 53.248-3.072 45.568-29.696l-52.736-184.32 118.784-144.896c9.216-11.264 8.192-27.648-2.048-37.888L494.592 297.984l115.712-126.976h271.36c15.872 0 28.672 12.8 28.672 28.672v596.48z" p-id="7564" fill="#8a8a8a"></path><path d="M725.504 256c-54.784 0-99.328 44.544-99.328 99.328s44.544 99.328 99.328 99.328 99.328-44.544 99.328-99.328S780.288 256 725.504 256z m0 142.336c-23.552 0-42.496-18.944-42.496-42.496 0-23.552 18.944-42.496 42.496-42.496 23.552 0 42.496 18.944 42.496 42.496 0 23.04-18.944 42.496-42.496 42.496z" p-id="7565" fill="#8a8a8a"></path></svg>