<?xml version="1.0" standalone="no"?><!DOCTYPE svg PUBLIC "-//W3C//DTD SVG 1.1//EN" "http://www.w3.org/Graphics/SVG/1.1/DTD/svg11.dtd"><svg t="1513131841960" class="icon" style="" viewBox="0 0 1024 1024" version="1.1" xmlns="http://www.w3.org/2000/svg" p-id="4752" xmlns:xlink="http://www.w3.org/1999/xlink" width="64" height="64"><defs><style type="text/css"></style></defs><path d="M512 1017.344c-278.528 0-505.344-226.816-505.344-505.344C6.656 233.472 233.472 6.656 512 6.656c278.528 0 505.344 226.816 505.344 505.344 0 278.528-226.816 505.344-505.344 505.344z m0-949.248c-244.736 0-443.904 199.168-443.904 443.904s199.168 443.904 443.904 443.904 443.904-199.168 443.904-443.904-199.168-443.904-443.904-443.904z" fill="#f4fffb" p-id="4753"></path><path d="M716.8 435.712c-16.896 0-30.72 13.824-30.72 30.72v38.912c0 96.256-78.336 174.08-174.08 174.08-96.256 0-174.08-78.336-174.08-174.08v-38.912c0-16.896-13.824-30.72-30.72-30.72s-30.72 13.824-30.72 30.72v38.912c0 119.808 89.6 218.624 204.8 233.472v35.84H375.808c-16.896 0-30.72 13.824-30.72 30.72s13.824 30.72 30.72 30.72h272.384c16.896 0 30.72-13.824 30.72-30.72s-13.824-30.72-30.72-30.72H542.72v-35.84c115.712-15.36 204.8-114.176 204.8-233.472v-38.912c0-17.408-13.312-30.72-30.72-30.72z" fill="#f4fffb" p-id="4754"></path><path d="M512 626.176c70.656 0 128-57.344 128-128V321.024c0-70.656-57.344-128-128-128s-128 57.344-128 128v177.152c0 70.656 57.344 128 128 128zM445.44 321.024c0-36.864 29.696-66.56 66.56-66.56s66.56 29.696 66.56 66.56v177.152c0 36.864-29.696 66.56-66.56 66.56s-66.56-29.696-66.56-66.56V321.024z" fill="#f4fffb" p-id="4755"></path></svg>