<?xml version="1.0" standalone="no"?><!DOCTYPE svg PUBLIC "-//W3C//DTD SVG 1.1//EN" "http://www.w3.org/Graphics/SVG/1.1/DTD/svg11.dtd"><svg t="1513924442113" class="icon" style="" viewBox="0 0 1024 1024" version="1.1" xmlns="http://www.w3.org/2000/svg" p-id="1872" xmlns:xlink="http://www.w3.org/1999/xlink" width="32" height="32"><defs><style type="text/css"></style></defs><path d="M835.4 384.1c-14.3-0.5-26.4 10.7-26.9 25-0.1 2.1-0.4 6.5-1 12.8-1.1 10.8-2.7 22.8-5.2 35.9-6.9 37.2-18.2 74.3-34.8 108.8-46.5 96.3-124.6 153-245.2 153-120.7 0-198.8-55.8-245.3-150.7-16.6-33.8-27.9-70.4-34.7-106.9-2.4-12.8-4.1-24.7-5.1-35.3-0.6-6.2-0.9-10.5-1-12.5-0.5-14.3-12.6-25.5-26.9-25-14.3 0.5-25.5 12.6-25 26.9 0.4 11.5 2.4 30.9 7 55.5 7.7 40.9 20.3 81.8 39.2 120.2 50.8 103.6 136.5 169.7 262 178.7v87.4h-181c-14.3 0-26 11.6-26 26 0 14.3 11.6 26 26 26H729c14.3 0 26-11.6 26-26 0-14.3-11.6-26-26-26H544.3V771c129.9-6.8 218.2-74.5 270-181.9 18.8-39 31.4-80.5 39.1-121.9 4.6-24.9 6.6-44.5 7-56.2 0.5-14.4-10.7-26.4-25-26.9z" p-id="1873" fill="#cdcdcd"></path><path d="M518.4 638.9c105 0 190.4-85.2 190.4-190.4V206.1c0-105-85.3-190.4-190.4-190.4-105 0-190.4 85.2-190.4 190.4v242.5c0 105 85.2 190.3 190.4 190.3zM379.9 206.1c0-76.4 62.1-138.4 138.5-138.4s138.5 62.1 138.5 138.4v242.5c0 76.4-62.1 138.4-138.5 138.4s-138.5-62.1-138.5-138.4V206.1z" p-id="1874" fill="#cdcdcd"></path><path d="M835.4 384.1c-14.3-0.5-26.4 10.7-26.9 25-0.1 2.1-0.4 6.5-1 12.8-1.1 10.8-2.7 22.8-5.2 35.9-6.9 37.2-18.2 74.3-34.8 108.8-46.5 96.3-124.6 153-245.2 153-120.7 0-198.8-55.8-245.3-150.7-16.6-33.8-27.9-70.4-34.7-106.9-2.4-12.8-4.1-24.7-5.1-35.3-0.6-6.2-0.9-10.5-1-12.5-0.5-14.3-12.6-25.5-26.9-25-14.3 0.5-25.5 12.6-25 26.9 0.4 11.5 2.4 30.9 7 55.5 7.7 40.9 20.3 81.8 39.2 120.2 50.8 103.6 136.5 169.7 262 178.7v87.4h-181c-14.3 0-26 11.6-26 26 0 14.3 11.6 26 26 26H729c14.3 0 26-11.6 26-26 0-14.3-11.6-26-26-26H544.3V771c129.9-6.8 218.2-74.5 270-181.9 18.8-39 31.4-80.5 39.1-121.9 4.6-24.9 6.6-44.5 7-56.2 0.5-14.4-10.7-26.4-25-26.9z" p-id="1875" fill="#cdcdcd"></path><path d="M518.4 638.9c105 0 190.4-85.2 190.4-190.4V206.1c0-105-85.3-190.4-190.4-190.4-105 0-190.4 85.2-190.4 190.4v242.5c0 105 85.2 190.3 190.4 190.3zM379.9 206.1c0-76.4 62.1-138.4 138.5-138.4s138.5 62.1 138.5 138.4v242.5c0 76.4-62.1 138.4-138.5 138.4s-138.5-62.1-138.5-138.4V206.1z" p-id="1876" fill="#cdcdcd"></path></svg>