<?xml version="1.0" standalone="no"?><!DOCTYPE svg PUBLIC "-//W3C//DTD SVG 1.1//EN" "http://www.w3.org/Graphics/SVG/1.1/DTD/svg11.dtd"><svg t="1513232501153" class="icon" style="" viewBox="0 0 1024 1024" version="1.1" xmlns="http://www.w3.org/2000/svg" p-id="1877" xmlns:xlink="http://www.w3.org/1999/xlink" width="32" height="32"><defs><style type="text/css"></style></defs><path d="M464.342 258.765l-48.464 48.8c55.45 55.097 85.996 128.481 85.996 206.643 0 76.155-29.203 148.188-82.234 202.815l49.371 47.91c65.542-67.54 101.647-156.576 101.647-250.724C570.657 417.591 532.907 326.877 464.342 258.765z" p-id="1878" fill="#bfbfbf"></path><path d="M600.733 128l-47.708 49.555c92.058 88.641 142.755 207.81 142.755 335.561 0 126.693-49.992 245.174-140.757 333.613l47.994 49.27c104.182-101.504 161.546-237.475 161.546-382.883C764.563 366.499 706.376 229.731 600.733 128z" p-id="1879" fill="#bfbfbf"></path><path d="M322.846 512.073m-63.409 0a63.409 63.409 0 1 0 126.818 0 63.409 63.409 0 1 0-126.818 0Z" p-id="1880" fill="#bfbfbf"></path><path d="M657.343 492.85" p-id="1881" fill="#bfbfbf"></path></svg>